# xmcd CD database file
#
# Track frame offsets:
#	150
#	19673
#	33841
#	47026
#	62071
#	79062
#	91512
#	105621
#	123121
#	137307
#	154641
#	169715
#
# Disc length: 2446 seconds
#
# Revision: 0
# Processed by: cddbd v1.5.2PL0 Copyright (c) Steve Scherf et al.
# Submitted via: CDex 1.51
#
DISCID=7f098c0c
DTITLE=Brian Letton  - Songs of Faith And Inspiration
DYEAR=1900
DGENRE=Australian Country
TTITLE0=When the Harvest Days are over Jessie Dear
TTITLE1=Showers of Blessings
TTITLE2=Softly and Tenderley
TTITLE3=Just a Closer Walk With thee
TTITLE4=Whispering Hope
TTITLE5=He's Just The One
TTITLE6=The Salvos
TTITLE7=How Great Thou Art
TTITLE8=Hornets
TTITLE9=The Lonely Bell
TTITLE10=The Old Rugged cross
TTITLE11=I Saw a Man
EXTD=
EXTT0=
EXTT1=
EXTT2=
EXTT3=
EXTT4=
EXTT5=
EXTT6=
EXTT7=
EXTT8=
EXTT9=
EXTT10=
EXTT11=
PLAYORDER=
